<svg width="754" height="92" viewBox="0 0 754 92" fill="none" xmlns="http://www.w3.org/2000/svg">
<g clip-path="url(#clip0_5_20)">
<path d="M233.953 38.7683H220.385V64.6666C220.385 71.5721 224.986 71.4603 233.953 71.0316V81.4972C215.793 83.6593 208.566 78.6921 208.566 64.6666V38.7683H198.498V27.5385H208.566V13.047L220.385 9.59889V27.5385H233.953V38.7683ZM285.688 27.5385H297.507V81.4972H285.688V73.7249C281.529 79.4469 275.064 82.9044 266.53 82.9044C251.653 82.9044 239.289 70.4911 239.289 54.5179C239.289 38.4421 251.653 26.1406 266.53 26.1406C275.064 26.1406 281.529 29.5888 285.688 35.199V27.5385ZM268.393 71.7865C278.245 71.7865 285.688 64.5547 285.688 54.5179C285.688 44.481 278.245 37.2492 268.393 37.2492C258.541 37.2492 251.107 44.481 251.107 54.5179C251.107 64.5547 258.541 71.7865 268.393 71.7865ZM317.201 19.4494C313.042 19.4494 309.645 15.9919 309.645 12.0033C309.655 11.0247 309.852 10.0555 310.229 9.15156C310.609 8.2477 311.165 7.42692 311.866 6.73613C312.567 6.04534 313.398 5.49808 314.312 5.12563C315.225 4.75286 316.213 4.55715 317.201 4.55715C318.189 4.55715 319.168 4.75286 320.09 5.12563C321.003 5.4984 321.831 6.04824 322.537 6.73787C323.233 7.43681 323.788 8.25691 324.174 9.15156C324.55 10.0555 324.748 11.0247 324.748 12.0033C324.748 15.9919 321.36 19.4494 317.201 19.4494ZM311.292 81.4972V27.5385H323.111V81.4972H311.292ZM336.792 81.4972V2.72125H348.611V81.4972H336.792ZM425.319 27.5385H437.796L420.614 81.4972H409.012L397.636 45.1333L386.146 81.4972H374.544L357.362 27.5385H369.839L380.453 64.7691L391.943 27.5385H403.216L414.592 64.7691L425.319 27.5385ZM452.457 19.4494C448.297 19.4494 444.91 15.9919 444.91 12.0033C444.91 11.0247 445.108 10.0555 445.484 9.15156C445.87 8.25691 446.425 7.43681 447.121 6.73787C447.827 6.04824 448.655 5.4984 449.568 5.12563C450.49 4.75286 451.469 4.55715 452.457 4.55715C454.456 4.55762 456.374 5.34158 457.792 6.73787C458.498 7.43681 459.053 8.25691 459.429 9.15156C459.815 10.0555 460.013 11.0247 460.013 12.0033C460.013 15.9919 456.616 19.4494 452.457 19.4494ZM446.547 81.4972V27.5385H458.366V81.4972H446.547ZM521.844 48.3671V81.4972H510.025V49.56C510.025 41.3497 505.208 37.0349 497.764 37.0349C489.992 37.0349 483.866 41.5734 483.866 52.5794V81.4972H472.048V27.5385H483.866V34.4441C487.48 28.8339 493.389 26.1406 500.832 26.1406C513.083 26.1406 521.844 34.3416 521.844 48.3671ZM577.869 5.95505H589.688V81.4972H577.869V73.7249C573.71 79.4469 567.255 82.9044 558.721 82.9044C543.834 82.9044 531.47 70.4911 531.47 54.5179C531.47 38.4421 543.834 26.1406 558.721 26.1406C567.255 26.1406 573.71 29.5888 577.869 35.199V5.95505ZM560.584 71.7865C570.426 71.7865 577.869 64.5547 577.869 54.5179C577.869 44.481 570.426 37.2492 560.584 37.2492C550.732 37.2492 543.289 44.481 543.289 54.5179C543.289 64.5547 550.732 71.7865 560.584 71.7865ZM600.415 54.5179C600.415 38.4421 612.779 26.1406 629.303 26.1406C640.03 26.1406 649.327 31.639 653.702 40.0636L643.53 45.8882C641.122 40.8185 635.758 37.5754 629.19 37.5754C619.564 37.5754 612.234 44.8072 612.234 54.5179C612.234 64.2286 619.564 71.4603 629.19 71.4603C635.758 71.4603 641.122 68.1147 643.747 63.1568L653.928 68.8696C649.327 77.3967 640.03 82.9044 629.303 82.9044C612.779 82.9044 600.415 70.4911 600.415 54.5179ZM702.84 66.2788C702.84 77.0705 693.317 82.9044 681.499 82.9044C670.555 82.9044 662.679 78.0397 659.179 70.2768L669.351 64.4429C671.11 69.3076 675.486 72.2152 681.499 72.2152C686.759 72.2152 690.805 70.4911 690.805 66.1763C690.805 56.5681 661.371 61.964 661.371 42.6451C661.371 32.5057 670.235 26.1406 681.395 26.1406C690.363 26.1406 697.806 30.2411 701.636 37.361L691.68 42.8687C689.713 38.6564 685.884 36.718 681.395 36.718C677.123 36.718 673.406 38.5446 673.406 42.4307C673.406 52.2533 702.84 46.3169 702.84 66.2788ZM753.295 66.2788C753.295 77.0705 743.772 82.9044 731.954 82.9044C721.01 82.9044 713.125 78.0397 709.624 70.2768L719.806 64.4429C721.556 69.3076 725.931 72.2152 731.954 72.2152C737.204 72.2152 741.25 70.4911 741.25 66.1763C741.25 56.5681 711.817 61.964 711.817 42.6451C711.817 32.5057 720.681 26.1406 731.841 26.1406C740.818 26.1406 748.261 30.2411 752.09 37.361L742.126 42.8687C740.159 38.6564 736.329 36.718 731.841 36.718C727.578 36.718 723.852 38.5446 723.852 42.4307C723.852 52.2533 753.295 46.3169 753.295 66.2788Z" fill="white"/>
<path d="M78.4577 0C57.728 0 44.7614 10.2233 39.5767 30.6698C47.3585 20.4465 56.4295 16.607 66.799 19.1605C72.7083 20.6236 76.9333 24.8545 81.6193 29.5421C89.2412 37.1653 98.0675 46 117.339 46C138.068 46 151.025 35.7767 156.21 15.3302C148.438 25.5535 139.367 29.3837 128.997 26.8302C123.088 25.3764 118.854 21.1361 114.177 16.4579C106.555 8.82536 97.7288 0 78.4577 0ZM39.5767 46C18.8471 46 5.88987 56.2233 0.705109 76.6698C8.47754 66.4465 17.5485 62.6163 27.918 65.1698C33.8367 66.6236 38.0617 70.8639 42.7383 75.5421C50.3602 83.1746 59.1865 92 78.4577 92C99.1967 92 112.154 81.7767 117.339 61.3302C109.557 71.5535 100.486 75.393 90.1257 72.8395C84.207 71.3764 79.982 67.1455 75.296 62.4579C67.6741 54.8347 58.8478 46 39.5767 46Z" fill="#06B6D4"/>
</g>
<defs>
<clipPath id="clip0_5_20">
<rect width="754" height="92" fill="white"/>
</clipPath>
</defs>
</svg>
